<svg width="880" height="298" viewBox="0 0 880 298" fill="none" xmlns="http://www.w3.org/2000/svg">
<path d="M31.7045 43.0909V174H15.8523V43.0909H31.7045ZM167.296 43.0909V174H151.955L80.6197 71.2159H79.3413V174H63.489V43.0909H78.8299L150.421 146.131H151.699V43.0909H167.296ZM270.607 75.8182C269.84 69.3409 266.729 64.3125 261.275 60.733C255.82 57.1534 249.13 55.3636 241.204 55.3636C235.408 55.3636 230.337 56.3011 225.991 58.1761C221.687 60.0511 218.32 62.6293 215.891 65.9105C213.505 69.1918 212.312 72.9204 212.312 77.0966C212.312 80.5909 213.143 83.5952 214.805 86.1094C216.509 88.581 218.683 90.6477 221.325 92.3097C223.967 93.929 226.737 95.2713 229.634 96.3366C232.532 97.3594 235.195 98.1903 237.624 98.8295L250.92 102.409C254.329 103.304 258.121 104.54 262.298 106.116C266.516 107.693 270.543 109.845 274.379 112.572C278.256 115.257 281.452 118.709 283.967 122.928C286.481 127.146 287.738 132.324 287.738 138.46C287.738 145.534 285.884 151.926 282.177 157.636C278.512 163.347 273.143 167.885 266.069 171.251C259.038 174.618 250.494 176.301 240.437 176.301C231.062 176.301 222.944 174.788 216.083 171.763C209.265 168.737 203.896 164.518 199.975 159.107C196.097 153.695 193.903 147.409 193.391 140.25H209.755C210.181 145.193 211.843 149.284 214.741 152.523C217.681 155.719 221.388 158.105 225.863 159.682C230.38 161.216 235.238 161.983 240.437 161.983C246.488 161.983 251.921 161.003 256.737 159.043C261.552 157.04 265.366 154.27 268.178 150.733C270.991 147.153 272.397 142.977 272.397 138.205C272.397 133.858 271.183 130.321 268.754 127.594C266.325 124.866 263.129 122.651 259.165 120.946C255.202 119.241 250.92 117.75 246.317 116.472L230.21 111.869C219.982 108.929 211.886 104.732 205.92 99.277C199.954 93.8224 196.971 86.6847 196.971 77.8636C196.971 70.5341 198.952 64.142 202.915 58.6875C206.921 53.1903 212.29 48.929 219.023 45.9034C225.799 42.8352 233.363 41.3011 241.715 41.3011C250.153 41.3011 257.653 42.8139 264.215 45.8395C270.778 48.8224 275.977 52.9133 279.812 58.1122C283.69 63.3111 285.735 69.2131 285.948 75.8182H270.607ZM306.642 57.1534V43.0909H404.824V57.1534H363.659V174H347.807V57.1534H306.642ZM419.366 174H402.747L450.815 43.0909H467.179L515.247 174H498.627L459.508 63.8011H458.485L419.366 174ZM425.502 122.864H492.491V136.926H425.502V122.864ZM533.72 110.591V108.545H577.953V110.591H556.859V174H554.814V110.591H533.72ZM593.645 174V108.545H612.821C616.486 108.545 619.725 109.323 622.537 110.879C625.371 112.434 627.587 114.607 629.185 117.398C630.804 120.19 631.614 123.46 631.614 127.21C631.614 130.918 630.804 134.167 629.185 136.958C627.587 139.728 625.371 141.891 622.537 143.446C619.725 144.98 616.486 145.747 612.821 145.747H594.668V143.702H612.821C616.103 143.702 619 143.02 621.515 141.656C624.029 140.293 626 138.375 627.427 135.903C628.855 133.432 629.569 130.534 629.569 127.21C629.569 123.865 628.855 120.946 627.427 118.453C626 115.96 624.029 114.032 621.515 112.668C619 111.283 616.103 110.591 612.821 110.591H595.691V174H593.645ZM618.574 144.213L634.682 174H632.381L616.273 144.213H618.574ZM643.903 174H641.729L665.124 108.545H667.937L691.332 174H689.158L666.658 111.102H666.403L643.903 174ZM651.317 149.838H681.744V151.884H651.317V149.838ZM753.566 108.545V174H751.521L706.776 112.381H706.521V174H704.475V108.545H706.521L751.265 170.165H751.521V108.545H753.566ZM809.025 124.909C808.706 120.435 806.99 116.759 803.88 113.883C800.79 111.006 796.71 109.568 791.639 109.568C788.315 109.568 785.343 110.207 782.722 111.486C780.101 112.764 778.034 114.522 776.522 116.759C775.009 118.975 774.252 121.521 774.252 124.398C774.252 126.06 774.529 127.594 775.083 129C775.637 130.406 776.479 131.695 777.608 132.867C778.759 134.018 780.197 135.062 781.923 135.999C783.67 136.915 785.716 137.736 788.059 138.46L795.474 140.761C798.308 141.635 800.758 142.615 802.825 143.702C804.892 144.788 806.596 146.013 807.939 147.377C809.302 148.719 810.314 150.222 810.975 151.884C811.635 153.524 811.966 155.357 811.966 157.381C811.966 160.79 811.092 163.826 809.345 166.489C807.598 169.153 805.158 171.241 802.026 172.754C798.894 174.266 795.261 175.023 791.127 175.023C787.143 175.023 783.659 174.33 780.676 172.945C777.694 171.539 775.328 169.611 773.581 167.161C771.855 164.689 770.886 161.855 770.673 158.659H772.718C772.931 161.472 773.816 163.954 775.371 166.106C776.926 168.258 779.036 169.941 781.699 171.156C784.384 172.37 787.527 172.977 791.127 172.977C794.877 172.977 798.159 172.327 800.971 171.028C803.805 169.707 806 167.874 807.555 165.531C809.132 163.187 809.92 160.47 809.92 157.381C809.92 155.037 809.409 152.981 808.386 151.212C807.363 149.423 805.755 147.846 803.56 146.482C801.365 145.119 798.5 143.893 794.963 142.807L787.548 140.506C782.413 138.886 778.567 136.745 776.01 134.082C773.475 131.418 772.207 128.19 772.207 124.398C772.207 121.18 773.049 118.304 774.732 115.768C776.415 113.212 778.716 111.198 781.635 109.728C784.576 108.258 787.91 107.523 791.639 107.523C795.389 107.523 798.681 108.268 801.515 109.76C804.348 111.251 806.596 113.308 808.258 115.928C809.92 118.549 810.858 121.543 811.071 124.909H809.025Z" fill="white"/>
<path d="M2.85511 238V236.537L19.4886 210.557H2.88352V208.909H21.6051V210.372L4.9858 236.352H21.7472V238H2.85511ZM33.8672 238.469C32.6077 238.469 31.4524 238.218 30.4013 237.716C29.3596 237.214 28.5215 236.48 27.8871 235.514C27.2621 234.548 26.9496 233.374 26.9496 231.991C26.9496 231.082 27.1106 230.282 27.4325 229.591C27.7545 228.9 28.2517 228.303 28.924 227.801C29.5964 227.299 30.4581 226.887 31.5092 226.565C32.5604 226.234 33.8151 225.978 35.2734 225.798C36.3814 225.666 37.371 225.538 38.2422 225.415C39.1134 225.282 39.7952 225.079 40.2876 224.804C40.7895 224.529 41.0405 224.113 41.0405 223.554V222.645C41.0405 221.054 40.5386 219.79 39.5348 218.852C38.531 217.915 37.1484 217.446 35.3871 217.446C33.8246 217.446 32.5083 217.792 31.4382 218.483C30.3776 219.165 29.6342 220.045 29.2081 221.125L27.5746 220.514C27.9912 219.473 28.5926 218.606 29.3786 217.915C30.174 217.223 31.0831 216.707 32.1058 216.366C33.138 216.026 34.2176 215.855 35.3445 215.855C36.3198 215.855 37.2479 215.992 38.1286 216.267C39.0187 216.542 39.8094 216.958 40.5007 217.517C41.2015 218.076 41.7554 218.791 42.1626 219.662C42.5698 220.524 42.7734 221.556 42.7734 222.759V238H41.0405V234.065H40.9126C40.5339 234.88 40.013 235.623 39.3501 236.295C38.6967 236.958 37.906 237.489 36.978 237.886C36.0594 238.275 35.0225 238.469 33.8672 238.469ZM34.0376 236.864C35.4013 236.864 36.6087 236.532 37.6598 235.869C38.7204 235.197 39.549 234.278 40.1456 233.114C40.7422 231.949 41.0405 230.628 41.0405 229.151V225.94C40.8227 226.13 40.5054 226.3 40.0888 226.452C39.6816 226.594 39.2176 226.722 38.6967 226.835C38.1854 226.939 37.6456 227.034 37.0774 227.119C36.5187 227.195 35.9742 227.266 35.4439 227.332C33.853 227.522 32.5556 227.815 31.5518 228.213C30.5575 228.601 29.8284 229.113 29.3643 229.747C28.9098 230.382 28.6825 231.149 28.6825 232.048C28.6825 233.535 29.1939 234.709 30.2166 235.571C31.2393 236.433 32.513 236.864 34.0376 236.864ZM50.0391 238V216.182H51.7294V219.477H51.8999C52.3165 218.379 53.0362 217.508 54.0589 216.864C55.0817 216.22 56.3127 215.898 57.7521 215.898C59.3336 215.898 60.6072 216.277 61.5732 217.034C62.5485 217.792 63.2493 218.819 63.6754 220.116H63.8317C64.2578 218.838 65.0201 217.815 66.1186 217.048C67.2266 216.281 68.5902 215.898 70.2095 215.898C72.3213 215.898 73.9311 216.565 75.0391 217.901C76.1565 219.226 76.7152 221.045 76.7152 223.355V238H74.9822V223.355C74.9822 221.537 74.5466 220.107 73.6754 219.065C72.8042 218.024 71.5258 217.503 69.8402 217.503C68.041 217.503 66.6584 218.066 65.6925 219.193C64.7266 220.32 64.2436 221.755 64.2436 223.497V238H62.5107V223.241C62.5107 221.546 62.0845 220.169 61.2322 219.108C60.38 218.038 59.1016 217.503 57.397 217.503C56.2417 217.503 55.2427 217.768 54.3999 218.298C53.5665 218.829 52.9179 219.558 52.4538 220.486C51.9993 221.414 51.772 222.479 51.772 223.682V238H50.0391ZM92.017 238.455C90.2178 238.455 88.6174 237.972 87.2159 237.006C85.8144 236.03 84.7112 234.69 83.9062 232.986C83.1013 231.281 82.6989 229.34 82.6989 227.162C82.6989 224.974 83.1013 223.033 83.9062 221.338C84.7112 219.634 85.8144 218.294 87.2159 217.318C88.6174 216.343 90.2178 215.855 92.017 215.855C93.8163 215.855 95.4167 216.343 96.8182 217.318C98.2197 218.294 99.3229 219.634 100.128 221.338C100.933 223.043 101.335 224.984 101.335 227.162C101.335 229.34 100.933 231.281 100.128 232.986C99.3229 234.69 98.2197 236.03 96.8182 237.006C95.4167 237.972 93.8163 238.455 92.017 238.455ZM92.017 236.849C93.5417 236.849 94.8722 236.419 96.0085 235.557C97.1544 234.695 98.0398 233.53 98.6648 232.062C99.2992 230.595 99.6165 228.961 99.6165 227.162C99.6165 225.363 99.2992 223.734 98.6648 222.276C98.0303 220.808 97.1449 219.643 96.0085 218.781C94.8722 217.91 93.5417 217.474 92.017 217.474C90.4924 217.474 89.1619 217.91 88.0256 218.781C86.8892 219.643 86.0038 220.808 85.3693 222.276C84.7348 223.734 84.4176 225.363 84.4176 227.162C84.4176 228.961 84.7301 230.595 85.3551 232.062C85.9896 233.53 86.875 234.695 88.0114 235.557C89.1572 236.419 90.4924 236.849 92.017 236.849ZM91.179 213.071L94.9858 206.793H97.0455L92.7699 213.071H91.179ZM111.321 238L104.787 216.182H106.605L112.23 235.457H112.386L118.026 216.182H119.83L125.455 235.443H125.597L131.222 216.182H133.04L126.506 238H124.574L119.006 219.009H118.821L113.253 238H111.321ZM138.523 238V216.182H140.241V238H138.523ZM139.389 212.318C139.01 212.318 138.679 212.186 138.395 211.92C138.12 211.655 137.983 211.333 137.983 210.955C137.983 210.576 138.12 210.254 138.395 209.989C138.67 209.723 139.001 209.591 139.389 209.591C139.768 209.591 140.095 209.723 140.369 209.989C140.653 210.254 140.795 210.576 140.795 210.955C140.795 211.333 140.658 211.655 140.384 211.92C140.109 212.186 139.777 212.318 139.389 212.318ZM156.009 238.455C154.039 238.455 152.325 237.967 150.866 236.991C149.408 236.016 148.281 234.681 147.486 232.986C146.69 231.291 146.293 229.359 146.293 227.19C146.293 225.012 146.69 223.071 147.486 221.366C148.291 219.662 149.394 218.317 150.795 217.332C152.197 216.348 153.797 215.855 155.597 215.855C156.818 215.855 157.973 216.101 159.062 216.594C160.161 217.077 161.127 217.777 161.96 218.696C162.803 219.615 163.461 220.723 163.935 222.02C164.418 223.317 164.659 224.776 164.659 226.395V227.474H147.386V225.898H162.926C162.926 224.316 162.604 222.891 161.96 221.622C161.316 220.353 160.44 219.345 159.332 218.597C158.224 217.848 156.979 217.474 155.597 217.474C154.148 217.474 152.855 217.882 151.719 218.696C150.592 219.501 149.697 220.59 149.034 221.963C148.381 223.336 148.04 224.87 148.011 226.565V227.276C148.011 229.094 148.329 230.727 148.963 232.176C149.607 233.616 150.526 234.757 151.719 235.599C152.912 236.433 154.342 236.849 156.009 236.849C157.202 236.849 158.22 236.651 159.062 236.253C159.915 235.846 160.611 235.353 161.151 234.776C161.69 234.198 162.098 233.639 162.372 233.099L163.949 233.739C163.617 234.468 163.101 235.197 162.401 235.926C161.709 236.646 160.829 237.247 159.759 237.73C158.698 238.213 157.448 238.455 156.009 238.455ZM172.358 223.852V238H170.625V216.182H172.315V219.634H172.486C172.997 218.507 173.816 217.602 174.943 216.92C176.07 216.239 177.41 215.898 178.963 215.898C180.431 215.898 181.719 216.21 182.827 216.835C183.944 217.46 184.815 218.35 185.44 219.506C186.075 220.652 186.392 222.02 186.392 223.611V238H184.659V223.682C184.659 221.826 184.105 220.334 182.997 219.207C181.899 218.071 180.445 217.503 178.636 217.503C177.424 217.503 176.345 217.768 175.398 218.298C174.451 218.829 173.707 219.572 173.168 220.528C172.628 221.475 172.358 222.583 172.358 223.852ZM193.679 238V216.182H195.398V238H193.679ZM194.545 212.318C194.167 212.318 193.835 212.186 193.551 211.92C193.277 211.655 193.139 211.333 193.139 210.955C193.139 210.576 193.277 210.254 193.551 209.989C193.826 209.723 194.157 209.591 194.545 209.591C194.924 209.591 195.251 209.723 195.526 209.989C195.81 210.254 195.952 210.576 195.952 210.955C195.952 211.333 195.814 211.655 195.54 211.92C195.265 212.186 194.934 212.318 194.545 212.318ZM208.438 238.469C207.178 238.469 206.023 238.218 204.972 237.716C203.93 237.214 203.092 236.48 202.457 235.514C201.832 234.548 201.52 233.374 201.52 231.991C201.52 231.082 201.681 230.282 202.003 229.591C202.325 228.9 202.822 228.303 203.494 227.801C204.167 227.299 205.028 226.887 206.08 226.565C207.131 226.234 208.385 225.978 209.844 225.798C210.952 225.666 211.941 225.538 212.812 225.415C213.684 225.282 214.366 225.079 214.858 224.804C215.36 224.529 215.611 224.113 215.611 223.554V222.645C215.611 221.054 215.109 219.79 214.105 218.852C213.101 217.915 211.719 217.446 209.957 217.446C208.395 217.446 207.079 217.792 206.009 218.483C204.948 219.165 204.205 220.045 203.778 221.125L202.145 220.514C202.562 219.473 203.163 218.606 203.949 217.915C204.744 217.223 205.653 216.707 206.676 216.366C207.708 216.026 208.788 215.855 209.915 215.855C210.89 215.855 211.818 215.992 212.699 216.267C213.589 216.542 214.38 216.958 215.071 217.517C215.772 218.076 216.326 218.791 216.733 219.662C217.14 220.524 217.344 221.556 217.344 222.759V238H215.611V234.065H215.483C215.104 234.88 214.583 235.623 213.92 236.295C213.267 236.958 212.476 237.489 211.548 237.886C210.63 238.275 209.593 238.469 208.438 238.469ZM208.608 236.864C209.972 236.864 211.179 236.532 212.23 235.869C213.291 235.197 214.119 234.278 214.716 233.114C215.313 231.949 215.611 230.628 215.611 229.151V225.94C215.393 226.13 215.076 226.3 214.659 226.452C214.252 226.594 213.788 226.722 213.267 226.835C212.756 226.939 212.216 227.034 211.648 227.119C211.089 227.195 210.545 227.266 210.014 227.332C208.423 227.522 207.126 227.815 206.122 228.213C205.128 228.601 204.399 229.113 203.935 229.747C203.48 230.382 203.253 231.149 203.253 232.048C203.253 233.535 203.764 234.709 204.787 235.571C205.81 236.433 207.083 236.864 208.608 236.864ZM235.121 238V236.537L247.962 217.986V217.83H235.831V216.182H250.163V217.673L237.436 236.196V236.352H250.675V238H235.121ZM269.624 223.852V238H267.891V216.182H269.581V219.634H269.751C270.263 218.507 271.082 217.602 272.209 216.92C273.336 216.239 274.676 215.898 276.229 215.898C277.696 215.898 278.984 216.21 280.092 216.835C281.21 217.46 282.081 218.35 282.706 219.506C283.34 220.652 283.658 222.02 283.658 223.611V238H281.925V223.682C281.925 221.826 281.371 220.334 280.263 219.207C279.164 218.071 277.711 217.503 275.902 217.503C274.69 217.503 273.61 217.768 272.663 218.298C271.716 218.829 270.973 219.572 270.433 220.528C269.893 221.475 269.624 222.583 269.624 223.852ZM296.641 238.469C295.381 238.469 294.226 238.218 293.175 237.716C292.133 237.214 291.295 236.48 290.661 235.514C290.036 234.548 289.723 233.374 289.723 231.991C289.723 231.082 289.884 230.282 290.206 229.591C290.528 228.9 291.025 228.303 291.697 227.801C292.37 227.299 293.232 226.887 294.283 226.565C295.334 226.234 296.589 225.978 298.047 225.798C299.155 225.666 300.144 225.538 301.016 225.415C301.887 225.282 302.569 225.079 303.061 224.804C303.563 224.529 303.814 224.113 303.814 223.554V222.645C303.814 221.054 303.312 219.79 302.308 218.852C301.304 217.915 299.922 217.446 298.161 217.446C296.598 217.446 295.282 217.792 294.212 218.483C293.151 219.165 292.408 220.045 291.982 221.125L290.348 220.514C290.765 219.473 291.366 218.606 292.152 217.915C292.947 217.223 293.857 216.707 294.879 216.366C295.911 216.026 296.991 215.855 298.118 215.855C299.093 215.855 300.021 215.992 300.902 216.267C301.792 216.542 302.583 216.958 303.274 217.517C303.975 218.076 304.529 218.791 304.936 219.662C305.343 220.524 305.547 221.556 305.547 222.759V238H303.814V234.065H303.686C303.307 234.88 302.786 235.623 302.124 236.295C301.47 236.958 300.679 237.489 299.751 237.886C298.833 238.275 297.796 238.469 296.641 238.469ZM296.811 236.864C298.175 236.864 299.382 236.532 300.433 235.869C301.494 235.197 302.322 234.278 302.919 233.114C303.516 231.949 303.814 230.628 303.814 229.151V225.94C303.596 226.13 303.279 226.3 302.862 226.452C302.455 226.594 301.991 226.722 301.47 226.835C300.959 226.939 300.419 227.034 299.851 227.119C299.292 227.195 298.748 227.266 298.217 227.332C296.626 227.522 295.329 227.815 294.325 228.213C293.331 228.601 292.602 229.113 292.138 229.747C291.683 230.382 291.456 231.149 291.456 232.048C291.456 233.535 291.967 234.709 292.99 235.571C294.013 236.433 295.286 236.864 296.811 236.864ZM312.812 238V216.182H314.503V219.477H314.673C315.09 218.379 315.81 217.508 316.832 216.864C317.855 216.22 319.086 215.898 320.526 215.898C322.107 215.898 323.381 216.277 324.347 217.034C325.322 217.792 326.023 218.819 326.449 220.116H326.605C327.031 218.838 327.794 217.815 328.892 217.048C330 216.281 331.364 215.898 332.983 215.898C335.095 215.898 336.705 216.565 337.812 217.901C338.93 219.226 339.489 221.045 339.489 223.355V238H337.756V223.355C337.756 221.537 337.32 220.107 336.449 219.065C335.578 218.024 334.299 217.503 332.614 217.503C330.814 217.503 329.432 218.066 328.466 219.193C327.5 220.32 327.017 221.755 327.017 223.497V238H325.284V223.241C325.284 221.546 324.858 220.169 324.006 219.108C323.153 218.038 321.875 217.503 320.17 217.503C319.015 217.503 318.016 217.768 317.173 218.298C316.34 218.829 315.691 219.558 315.227 220.486C314.773 221.414 314.545 222.479 314.545 223.682V238H312.812ZM346.765 238V216.182H348.484V238H346.765ZM347.631 212.318C347.253 212.318 346.921 212.186 346.637 211.92C346.362 211.655 346.225 211.333 346.225 210.955C346.225 210.576 346.362 210.254 346.637 209.989C346.912 209.723 347.243 209.591 347.631 209.591C348.01 209.591 348.337 209.723 348.612 209.989C348.896 210.254 349.038 210.576 349.038 210.955C349.038 211.333 348.9 211.655 348.626 211.92C348.351 212.186 348.02 212.318 347.631 212.318ZM374.705 216.182V217.73H365.174V216.182H374.705ZM368.398 210.955H370.117V232.844C370.117 233.734 370.288 234.463 370.629 235.031C370.979 235.59 371.433 236.007 371.992 236.281C372.56 236.546 373.166 236.679 373.81 236.679C374.123 236.679 374.393 236.655 374.62 236.608C374.857 236.561 375.079 236.499 375.288 236.423L375.714 238C375.449 238.095 375.155 238.175 374.833 238.241C374.511 238.317 374.132 238.355 373.697 238.355C372.788 238.355 371.926 238.152 371.112 237.744C370.307 237.337 369.653 236.745 369.151 235.969C368.649 235.192 368.398 234.255 368.398 233.156V210.955ZM389.009 238.455C387.21 238.455 385.61 237.972 384.208 237.006C382.807 236.03 381.703 234.69 380.898 232.986C380.094 231.281 379.691 229.34 379.691 227.162C379.691 224.974 380.094 223.033 380.898 221.338C381.703 219.634 382.807 218.294 384.208 217.318C385.61 216.343 387.21 215.855 389.009 215.855C390.808 215.855 392.409 216.343 393.81 217.318C395.212 218.294 396.315 219.634 397.12 221.338C397.925 223.043 398.327 224.984 398.327 227.162C398.327 229.34 397.925 231.281 397.12 232.986C396.315 234.69 395.212 236.03 393.81 237.006C392.409 237.972 390.808 238.455 389.009 238.455ZM389.009 236.849C390.534 236.849 391.864 236.419 393.001 235.557C394.147 234.695 395.032 233.53 395.657 232.062C396.291 230.595 396.609 228.961 396.609 227.162C396.609 225.363 396.291 223.734 395.657 222.276C395.022 220.808 394.137 219.643 393.001 218.781C391.864 217.91 390.534 217.474 389.009 217.474C387.485 217.474 386.154 217.91 385.018 218.781C383.881 219.643 382.996 220.808 382.362 222.276C381.727 223.734 381.41 225.363 381.41 227.162C381.41 228.961 381.722 230.595 382.347 232.062C382.982 233.53 383.867 234.695 385.004 235.557C386.149 236.419 387.485 236.849 389.009 236.849ZM423.729 238.455C421.873 238.455 420.239 237.967 418.828 236.991C417.417 236.007 416.314 234.662 415.518 232.957C414.732 231.253 414.339 229.321 414.339 227.162C414.339 225.003 414.737 223.071 415.533 221.366C416.328 219.662 417.431 218.317 418.842 217.332C420.253 216.348 421.877 215.855 423.714 215.855C425.097 215.855 426.357 216.139 427.493 216.707C428.639 217.276 429.586 218.066 430.334 219.08C431.091 220.093 431.574 221.267 431.783 222.602H430.021C429.737 221.125 429.027 219.903 427.891 218.938C426.764 217.962 425.376 217.474 423.729 217.474C422.251 217.474 420.935 217.891 419.78 218.724C418.625 219.548 417.715 220.689 417.053 222.148C416.39 223.597 416.058 225.259 416.058 227.134C416.058 228.98 416.38 230.637 417.024 232.105C417.668 233.563 418.568 234.719 419.723 235.571C420.878 236.423 422.214 236.849 423.729 236.849C424.799 236.849 425.774 236.636 426.655 236.21C427.545 235.784 428.288 235.178 428.885 234.392C429.482 233.606 429.875 232.688 430.064 231.636H431.825C431.617 232.981 431.143 234.165 430.405 235.188C429.666 236.21 428.724 237.01 427.578 237.588C426.432 238.166 425.149 238.455 423.729 238.455ZM436.996 238V236.537L449.837 217.986V217.83H437.706V216.182H452.038V217.673L439.311 236.196V236.352H452.55V238H436.996ZM459.908 246.182C459.472 246.182 459.041 246.134 458.615 246.04C458.189 245.945 457.805 245.822 457.464 245.67L457.976 244.151C458.866 244.491 459.671 244.615 460.391 244.52C461.12 244.425 461.764 244.094 462.322 243.526C462.881 242.957 463.355 242.124 463.743 241.026L464.737 238.298L456.74 216.182H458.601L465.533 235.77H465.675L472.607 216.182H474.467L465.263 241.707C464.912 242.692 464.472 243.516 463.942 244.179C463.411 244.842 462.805 245.339 462.124 245.67C461.451 246.011 460.713 246.182 459.908 246.182ZM493.746 220.884L492.141 221.31C491.886 220.514 491.521 219.828 491.048 219.25C490.574 218.672 489.978 218.227 489.258 217.915C488.548 217.593 487.695 217.432 486.701 217.432C485.101 217.432 483.789 217.83 482.766 218.625C481.753 219.42 481.246 220.457 481.246 221.736C481.246 222.777 481.592 223.639 482.283 224.321C482.975 224.993 484.031 225.505 485.451 225.855L488.803 226.693C490.527 227.119 491.824 227.811 492.695 228.767C493.567 229.714 494.002 230.893 494.002 232.304C494.002 233.507 493.675 234.572 493.022 235.5C492.369 236.428 491.464 237.152 490.309 237.673C489.163 238.194 487.828 238.455 486.303 238.455C484.267 238.455 482.596 237.981 481.289 237.034C479.982 236.078 479.144 234.709 478.775 232.929L480.437 232.503C480.749 233.923 481.398 235.008 482.383 235.756C483.377 236.494 484.679 236.864 486.289 236.864C488.069 236.864 489.504 236.442 490.593 235.599C491.692 234.757 492.241 233.677 492.241 232.361C492.241 231.357 491.919 230.509 491.275 229.818C490.631 229.127 489.656 228.62 488.349 228.298L484.869 227.446C483.088 227.01 481.753 226.314 480.863 225.358C479.973 224.392 479.528 223.204 479.528 221.793C479.528 220.618 479.835 219.586 480.451 218.696C481.067 217.806 481.914 217.11 482.994 216.608C484.073 216.106 485.309 215.855 486.701 215.855C488.548 215.855 490.053 216.291 491.218 217.162C492.383 218.033 493.226 219.274 493.746 220.884ZM507.713 216.182V217.73H498.182V216.182H507.713ZM501.406 210.955H503.125V232.844C503.125 233.734 503.295 234.463 503.636 235.031C503.987 235.59 504.441 236.007 505 236.281C505.568 236.546 506.174 236.679 506.818 236.679C507.131 236.679 507.401 236.655 507.628 236.608C507.865 236.561 508.087 236.499 508.295 236.423L508.722 238C508.456 238.095 508.163 238.175 507.841 238.241C507.519 238.317 507.14 238.355 506.705 238.355C505.795 238.355 504.934 238.152 504.119 237.744C503.314 237.337 502.661 236.745 502.159 235.969C501.657 235.192 501.406 234.255 501.406 233.156V210.955ZM519.922 238.469C518.662 238.469 517.507 238.218 516.456 237.716C515.414 237.214 514.576 236.48 513.942 235.514C513.317 234.548 513.004 233.374 513.004 231.991C513.004 231.082 513.165 230.282 513.487 229.591C513.809 228.9 514.306 228.303 514.979 227.801C515.651 227.299 516.513 226.887 517.564 226.565C518.615 226.234 519.87 225.978 521.328 225.798C522.436 225.666 523.426 225.538 524.297 225.415C525.168 225.282 525.85 225.079 526.342 224.804C526.844 224.529 527.095 224.113 527.095 223.554V222.645C527.095 221.054 526.593 219.79 525.589 218.852C524.586 217.915 523.203 217.446 521.442 217.446C519.879 217.446 518.563 217.792 517.493 218.483C516.432 219.165 515.689 220.045 515.263 221.125L513.629 220.514C514.046 219.473 514.647 218.606 515.433 217.915C516.229 217.223 517.138 216.707 518.161 216.366C519.193 216.026 520.272 215.855 521.399 215.855C522.375 215.855 523.303 215.992 524.183 216.267C525.073 216.542 525.864 216.958 526.555 217.517C527.256 218.076 527.81 218.791 528.217 219.662C528.625 220.524 528.828 221.556 528.828 222.759V238H527.095V234.065H526.967C526.589 234.88 526.068 235.623 525.405 236.295C524.751 236.958 523.961 237.489 523.033 237.886C522.114 238.275 521.077 238.469 519.922 238.469ZM520.092 236.864C521.456 236.864 522.663 236.532 523.714 235.869C524.775 235.197 525.604 234.278 526.2 233.114C526.797 231.949 527.095 230.628 527.095 229.151V225.94C526.877 226.13 526.56 226.3 526.143 226.452C525.736 226.594 525.272 226.722 524.751 226.835C524.24 226.939 523.7 227.034 523.132 227.119C522.573 227.195 522.029 227.266 521.499 227.332C519.908 227.522 518.61 227.815 517.607 228.213C516.612 228.601 515.883 229.113 515.419 229.747C514.964 230.382 514.737 231.149 514.737 232.048C514.737 233.535 515.249 234.709 516.271 235.571C517.294 236.433 518.568 236.864 520.092 236.864ZM547.344 246.182V216.182H549.034V221.054H549.247C549.588 220.116 550.066 219.255 550.682 218.469C551.307 217.683 552.079 217.053 552.997 216.58C553.925 216.097 555.014 215.855 556.264 215.855C558.026 215.855 559.56 216.338 560.866 217.304C562.173 218.27 563.187 219.605 563.906 221.31C564.626 223.005 564.986 224.951 564.986 227.148C564.986 229.345 564.621 231.295 563.892 233C563.172 234.695 562.159 236.03 560.852 237.006C559.555 237.972 558.035 238.455 556.293 238.455C555.052 238.455 553.963 238.218 553.026 237.744C552.098 237.271 551.316 236.641 550.682 235.855C550.057 235.06 549.579 234.188 549.247 233.241H549.077V246.182H547.344ZM549.048 227.134C549.048 228.99 549.332 230.652 549.901 232.119C550.469 233.578 551.283 234.733 552.344 235.585C553.404 236.428 554.669 236.849 556.136 236.849C557.623 236.849 558.897 236.423 559.957 235.571C561.027 234.709 561.842 233.545 562.401 232.077C562.969 230.609 563.253 228.961 563.253 227.134C563.253 225.306 562.973 223.663 562.415 222.205C561.856 220.746 561.046 219.596 559.986 218.753C558.925 217.901 557.642 217.474 556.136 217.474C554.65 217.474 553.376 217.896 552.315 218.739C551.264 219.572 550.455 220.718 549.886 222.176C549.328 223.625 549.048 225.277 549.048 227.134ZM570.977 238V216.182H572.667V219.591H572.823C573.297 218.473 574.097 217.579 575.224 216.906C576.351 216.224 577.634 215.884 579.073 215.884C579.225 215.884 579.376 215.884 579.528 215.884C579.679 215.884 579.821 215.888 579.954 215.898V217.645C579.84 217.635 579.703 217.621 579.542 217.602C579.39 217.574 579.201 217.56 578.974 217.56C577.762 217.56 576.682 217.82 575.735 218.341C574.798 218.862 574.059 219.581 573.519 220.5C572.979 221.409 572.71 222.451 572.71 223.625V238H570.977ZM583.871 238V236.537L596.712 217.986V217.83H584.581V216.182H598.913V217.673L586.186 236.196V236.352H599.425V238H583.871ZM606.783 246.182C606.347 246.182 605.916 246.134 605.49 246.04C605.064 245.945 604.68 245.822 604.339 245.67L604.851 244.151C605.741 244.491 606.546 244.615 607.266 244.52C607.995 244.425 608.639 244.094 609.197 243.526C609.756 242.957 610.23 242.124 610.618 241.026L611.612 238.298L603.615 216.182H605.476L612.408 235.77H612.55L619.482 216.182H621.342L612.138 241.707C611.787 242.692 611.347 243.516 610.817 244.179C610.286 244.842 609.68 245.339 608.999 245.67C608.326 246.011 607.588 246.182 606.783 246.182ZM626.843 216.182H628.562V240.656C628.562 241.783 628.33 242.759 627.866 243.582C627.402 244.416 626.763 245.055 625.948 245.5C625.143 245.955 624.21 246.182 623.15 246.182C623.074 246.182 622.994 246.177 622.908 246.168C622.823 246.168 622.724 246.158 622.61 246.139L622.695 244.534C622.771 244.534 622.842 244.534 622.908 244.534C622.975 244.534 623.046 244.534 623.121 244.534C624.182 244.534 625.067 244.188 625.778 243.497C626.488 242.815 626.843 241.868 626.843 240.656V216.182ZM627.695 212.318C627.307 212.318 626.976 212.186 626.701 211.92C626.426 211.655 626.289 211.333 626.289 210.955C626.289 210.576 626.426 210.254 626.701 209.989C626.976 209.723 627.307 209.591 627.695 209.591C628.074 209.591 628.401 209.723 628.675 209.989C628.95 210.254 629.087 210.576 629.087 210.955C629.087 211.333 628.95 211.655 628.675 211.92C628.401 212.186 628.074 212.318 627.695 212.318ZM644.329 238.455C642.359 238.455 640.645 237.967 639.187 236.991C637.728 236.016 636.602 234.681 635.806 232.986C635.011 231.291 634.613 229.359 634.613 227.19C634.613 225.012 635.011 223.071 635.806 221.366C636.611 219.662 637.714 218.317 639.116 217.332C640.517 216.348 642.118 215.855 643.917 215.855C645.138 215.855 646.294 216.101 647.383 216.594C648.481 217.077 649.447 217.777 650.281 218.696C651.123 219.615 651.781 220.723 652.255 222.02C652.738 223.317 652.979 224.776 652.979 226.395V227.474H635.707V225.898H651.246C651.246 224.316 650.924 222.891 650.281 221.622C649.637 220.353 648.761 219.345 647.653 218.597C646.545 217.848 645.299 217.474 643.917 217.474C642.468 217.474 641.175 217.882 640.039 218.696C638.912 219.501 638.017 220.59 637.354 221.963C636.701 223.336 636.36 224.87 636.332 226.565V227.276C636.332 229.094 636.649 230.727 637.283 232.176C637.927 233.616 638.846 234.757 640.039 235.599C641.232 236.433 642.662 236.849 644.329 236.849C645.522 236.849 646.54 236.651 647.383 236.253C648.235 235.846 648.931 235.353 649.471 234.776C650.011 234.198 650.418 233.639 650.692 233.099L652.269 233.739C651.938 234.468 651.422 235.197 650.721 235.926C650.03 236.646 649.149 237.247 648.079 237.73C647.018 238.213 645.768 238.455 644.329 238.455ZM658.945 238V216.182H660.636V219.477H660.806C661.223 218.379 661.942 217.508 662.965 216.864C663.988 216.22 665.219 215.898 666.658 215.898C668.24 215.898 669.513 216.277 670.479 217.034C671.455 217.792 672.156 218.819 672.582 220.116H672.738C673.164 218.838 673.926 217.815 675.025 217.048C676.133 216.281 677.496 215.898 679.116 215.898C681.228 215.898 682.837 216.565 683.945 217.901C685.063 219.226 685.621 221.045 685.621 223.355V238H683.888V223.355C683.888 221.537 683.453 220.107 682.582 219.065C681.71 218.024 680.432 217.503 678.746 217.503C676.947 217.503 675.565 218.066 674.599 219.193C673.633 220.32 673.15 221.755 673.15 223.497V238H671.417V223.241C671.417 221.546 670.991 220.169 670.138 219.108C669.286 218.038 668.008 217.503 666.303 217.503C665.148 217.503 664.149 217.768 663.306 218.298C662.473 218.829 661.824 219.558 661.36 220.486C660.906 221.414 660.678 222.479 660.678 223.682V238H658.945ZM694.545 223.852V238H692.812V216.182H694.503V219.634H694.673C695.185 218.507 696.004 217.602 697.131 216.92C698.258 216.239 699.598 215.898 701.151 215.898C702.618 215.898 703.906 216.21 705.014 216.835C706.132 217.46 707.003 218.35 707.628 219.506C708.262 220.652 708.58 222.02 708.58 223.611V238H706.847V223.682C706.847 221.826 706.293 220.334 705.185 219.207C704.086 218.071 702.633 217.503 700.824 217.503C699.612 217.503 698.532 217.768 697.585 218.298C696.638 218.829 695.895 219.572 695.355 220.528C694.815 221.475 694.545 222.583 694.545 223.852ZM723.892 238.455C722.093 238.455 720.492 237.972 719.091 237.006C717.689 236.03 716.586 234.69 715.781 232.986C714.976 231.281 714.574 229.34 714.574 227.162C714.574 224.974 714.976 223.033 715.781 221.338C716.586 219.634 717.689 218.294 719.091 217.318C720.492 216.343 722.093 215.855 723.892 215.855C725.691 215.855 727.292 216.343 728.693 217.318C730.095 218.294 731.198 219.634 732.003 221.338C732.808 223.043 733.21 224.984 733.21 227.162C733.21 229.34 732.808 231.281 732.003 232.986C731.198 234.69 730.095 236.03 728.693 237.006C727.292 237.972 725.691 238.455 723.892 238.455ZM723.892 236.849C725.417 236.849 726.747 236.419 727.884 235.557C729.029 234.695 729.915 233.53 730.54 232.062C731.174 230.595 731.491 228.961 731.491 227.162C731.491 225.363 731.174 223.734 730.54 222.276C729.905 220.808 729.02 219.643 727.884 218.781C726.747 217.91 725.417 217.474 723.892 217.474C722.367 217.474 721.037 217.91 719.901 218.781C718.764 219.643 717.879 220.808 717.244 222.276C716.61 223.734 716.293 225.363 716.293 227.162C716.293 228.961 716.605 230.595 717.23 232.062C717.865 233.53 718.75 234.695 719.886 235.557C721.032 236.419 722.367 236.849 723.892 236.849ZM753.043 220.884L751.438 221.31C751.183 220.514 750.818 219.828 750.344 219.25C749.871 218.672 749.274 218.227 748.555 217.915C747.844 217.593 746.992 217.432 745.998 217.432C744.397 217.432 743.086 217.83 742.063 218.625C741.05 219.42 740.543 220.457 740.543 221.736C740.543 222.777 740.889 223.639 741.58 224.321C742.272 224.993 743.327 225.505 744.748 225.855L748.1 226.693C749.824 227.119 751.121 227.811 751.992 228.767C752.863 229.714 753.299 230.893 753.299 232.304C753.299 233.507 752.972 234.572 752.319 235.5C751.665 236.428 750.761 237.152 749.606 237.673C748.46 238.194 747.125 238.455 745.6 238.455C743.564 238.455 741.893 237.981 740.586 237.034C739.279 236.078 738.441 234.709 738.072 232.929L739.734 232.503C740.046 233.923 740.695 235.008 741.68 235.756C742.674 236.494 743.976 236.864 745.586 236.864C747.366 236.864 748.801 236.442 749.89 235.599C750.988 234.757 751.538 233.677 751.538 232.361C751.538 231.357 751.216 230.509 750.572 229.818C749.928 229.127 748.952 228.62 747.646 228.298L744.165 227.446C742.385 227.01 741.05 226.314 740.16 225.358C739.27 224.392 738.825 223.204 738.825 221.793C738.825 220.618 739.132 219.586 739.748 218.696C740.363 217.806 741.211 217.11 742.29 216.608C743.37 216.106 744.606 215.855 745.998 215.855C747.844 215.855 749.35 216.291 750.515 217.162C751.68 218.033 752.522 219.274 753.043 220.884ZM745.089 213.071L748.896 206.793H750.955L746.68 213.071H745.089ZM767.479 238.455C765.623 238.455 763.989 237.967 762.578 236.991C761.167 236.007 760.064 234.662 759.268 232.957C758.482 231.253 758.089 229.321 758.089 227.162C758.089 225.003 758.487 223.071 759.283 221.366C760.078 219.662 761.181 218.317 762.592 217.332C764.003 216.348 765.627 215.855 767.464 215.855C768.847 215.855 770.107 216.139 771.243 216.707C772.389 217.276 773.336 218.066 774.084 219.08C774.841 220.093 775.324 221.267 775.533 222.602H773.771C773.487 221.125 772.777 219.903 771.641 218.938C770.514 217.962 769.126 217.474 767.479 217.474C766.001 217.474 764.685 217.891 763.53 218.724C762.375 219.548 761.465 220.689 760.803 222.148C760.14 223.597 759.808 225.259 759.808 227.134C759.808 228.98 760.13 230.637 760.774 232.105C761.418 233.563 762.318 234.719 763.473 235.571C764.628 236.423 765.964 236.849 767.479 236.849C768.549 236.849 769.524 236.636 770.405 236.21C771.295 235.784 772.038 235.178 772.635 234.392C773.232 233.606 773.625 232.688 773.814 231.636H775.575C775.367 232.981 774.893 234.165 774.155 235.188C773.416 236.21 772.474 237.01 771.328 237.588C770.182 238.166 768.899 238.455 767.479 238.455ZM766.456 213.071L770.263 206.793H772.322L768.047 213.071H766.456Z" fill="white"/>
<path d="M519.51 59.483V43.7585H526.669C527.592 43.7585 528.43 43.9574 529.183 44.3551C529.936 44.7386 530.526 45.2926 530.952 46.017C531.392 46.7273 531.612 47.5724 531.612 48.5526C531.612 49.5469 531.392 50.4205 530.952 51.1733C530.511 51.9119 529.908 52.4943 529.141 52.9205C528.388 53.3324 527.536 53.5384 526.584 53.5384H520.661V51.7699H526.2C527.18 51.7699 527.962 51.4858 528.544 50.9176C529.141 50.3494 529.439 49.5611 529.439 48.5526C529.439 47.5298 529.141 46.7699 528.544 46.2727C527.962 45.7756 527.188 45.527 526.222 45.527H521.577V59.483H519.51ZM528.374 52.3026L532.251 59.483H529.95L526.136 52.3026H528.374ZM525.114 68.858C522.756 68.858 520.547 68.4176 518.487 67.5369C516.428 66.6562 514.616 65.4347 513.054 63.8722C511.491 62.3097 510.27 60.4986 509.389 58.4389C508.509 56.3793 508.068 54.1705 508.068 51.8125C508.068 49.4545 508.509 47.2457 509.389 45.1861C510.27 43.1264 511.491 41.3153 513.054 39.7528C514.616 38.1903 516.428 36.9688 518.487 36.0881C520.547 35.2074 522.756 34.767 525.114 34.767C527.472 34.767 529.68 35.2074 531.74 36.0881C533.8 36.9688 535.611 38.1903 537.173 39.7528C538.736 41.3153 539.957 43.1264 540.838 45.1861C541.719 47.2457 542.159 49.4545 542.159 51.8125C542.159 54.1705 541.719 56.3793 540.838 58.4389C539.957 60.4986 538.736 62.3097 537.173 63.8722C535.611 65.4347 533.8 66.6562 531.74 67.5369C529.68 68.4176 527.472 68.858 525.114 68.858ZM525.114 66.5781C527.841 66.5781 530.32 65.9176 532.55 64.5966C534.794 63.2756 536.577 61.5 537.898 59.2699C539.219 57.0256 539.879 54.5398 539.879 51.8125C539.879 49.0852 539.212 46.6065 537.876 44.3764C536.555 42.1463 534.78 40.3707 532.55 39.0497C530.32 37.7145 527.841 37.0469 525.114 37.0469C522.386 37.0469 519.901 37.7074 517.656 39.0284C515.426 40.3494 513.651 42.1321 512.33 44.3764C511.009 46.6065 510.348 49.0852 510.348 51.8125C510.348 54.5256 511.009 57.0043 512.33 59.2486C513.651 61.4929 515.426 63.2756 517.656 64.5966C519.901 65.9176 522.386 66.5781 525.114 66.5781Z" fill="white"/>
</svg>
