<svg width="1766" height="145" viewBox="0 0 1766 145" fill="none" xmlns="http://www.w3.org/2000/svg">
<path d="M1012.27 116H1004.2V86.9091H1012.9C1015.63 86.9091 1017.96 87.4867 1019.9 88.642C1021.84 89.7973 1023.33 91.4545 1024.36 93.6136C1025.4 95.7633 1025.92 98.3437 1025.91 101.355C1025.9 104.433 1025.36 107.065 1024.29 109.253C1023.22 111.431 1021.67 113.102 1019.64 114.267C1017.62 115.422 1015.16 116 1012.27 116ZM1005.98 114.352H1012.2C1014.8 114.352 1016.98 113.836 1018.76 112.804C1020.54 111.762 1021.89 110.271 1022.8 108.33C1023.72 106.388 1024.17 104.063 1024.16 101.355C1024.16 98.6847 1023.72 96.3977 1022.84 94.4943C1021.96 92.5814 1020.68 91.1136 1018.99 90.0909C1017.32 89.0682 1015.26 88.5568 1012.83 88.5568H1005.98V114.352ZM1040.34 116.455C1038.54 116.455 1036.94 115.972 1035.54 115.006C1034.13 114.03 1033.03 112.69 1032.23 110.986C1031.42 109.281 1031.02 107.34 1031.02 105.162C1031.02 102.974 1031.42 101.033 1032.23 99.3381C1033.03 97.6335 1034.13 96.2936 1035.54 95.3182C1036.94 94.3428 1038.54 93.8551 1040.34 93.8551C1042.14 93.8551 1043.74 94.3428 1045.14 95.3182C1046.54 96.2936 1047.64 97.6335 1048.45 99.3381C1049.25 101.043 1049.66 102.984 1049.66 105.162C1049.66 107.34 1049.25 109.281 1048.45 110.986C1047.64 112.69 1046.54 114.03 1045.14 115.006C1043.74 115.972 1042.14 116.455 1040.34 116.455ZM1040.34 114.849C1041.86 114.849 1043.19 114.419 1044.33 113.557C1045.47 112.695 1046.36 111.53 1046.99 110.062C1047.62 108.595 1047.94 106.961 1047.94 105.162C1047.94 103.363 1047.62 101.734 1046.99 100.276C1046.35 98.8078 1045.47 97.643 1044.33 96.7812C1043.19 95.91 1041.86 95.4744 1040.34 95.4744C1038.81 95.4744 1037.48 95.91 1036.35 96.7812C1035.21 97.643 1034.32 98.8078 1033.69 100.276C1033.06 101.734 1032.74 103.363 1032.74 105.162C1032.74 106.961 1033.05 108.595 1033.68 110.062C1034.31 111.53 1035.2 112.695 1036.33 113.557C1037.48 114.419 1038.81 114.849 1040.34 114.849ZM1069.49 98.8835L1067.88 99.3097C1067.63 98.5142 1067.26 97.8277 1066.79 97.25C1066.32 96.6723 1065.72 96.2273 1065 95.9148C1064.29 95.5928 1063.44 95.4318 1062.44 95.4318C1060.84 95.4318 1059.53 95.8295 1058.51 96.625C1057.5 97.4205 1056.99 98.4574 1056.99 99.7358C1056.99 100.777 1057.33 101.639 1058.03 102.321C1058.72 102.993 1059.77 103.505 1061.19 103.855L1064.55 104.693C1066.27 105.119 1067.57 105.811 1068.44 106.767C1069.31 107.714 1069.74 108.893 1069.74 110.304C1069.74 111.507 1069.42 112.572 1068.76 113.5C1068.11 114.428 1067.21 115.152 1066.05 115.673C1064.91 116.194 1063.57 116.455 1062.05 116.455C1060.01 116.455 1058.34 115.981 1057.03 115.034C1055.72 114.078 1054.89 112.709 1054.52 110.929L1056.18 110.503C1056.49 111.923 1057.14 113.008 1058.12 113.756C1059.12 114.494 1060.42 114.864 1062.03 114.864C1063.81 114.864 1065.25 114.442 1066.34 113.599C1067.43 112.757 1067.98 111.677 1067.98 110.361C1067.98 109.357 1067.66 108.509 1067.02 107.818C1066.37 107.127 1065.4 106.62 1064.09 106.298L1060.61 105.446C1058.83 105.01 1057.5 104.314 1056.61 103.358C1055.71 102.392 1055.27 101.204 1055.27 99.7926C1055.27 98.6184 1055.58 97.5862 1056.19 96.696C1056.81 95.8059 1057.66 95.1098 1058.74 94.608C1059.82 94.1061 1061.05 93.8551 1062.44 93.8551C1064.29 93.8551 1065.8 94.2907 1066.96 95.1619C1068.13 96.0331 1068.97 97.2737 1069.49 98.8835ZM1083.46 94.1818V95.7301H1073.92V94.1818H1083.46ZM1077.15 88.9545H1078.87V110.844C1078.87 111.734 1079.04 112.463 1079.38 113.031C1079.73 113.59 1080.18 114.007 1080.74 114.281C1081.31 114.546 1081.92 114.679 1082.56 114.679C1082.87 114.679 1083.14 114.655 1083.37 114.608C1083.61 114.561 1083.83 114.499 1084.04 114.423L1084.46 116C1084.2 116.095 1083.91 116.175 1083.58 116.241C1083.26 116.317 1082.88 116.355 1082.45 116.355C1081.54 116.355 1080.68 116.152 1079.86 115.744C1079.06 115.337 1078.4 114.745 1077.9 113.969C1077.4 113.192 1077.15 112.255 1077.15 111.156V88.9545ZM1095.66 116.469C1094.4 116.469 1093.25 116.218 1092.2 115.716C1091.16 115.214 1090.32 114.48 1089.68 113.514C1089.06 112.548 1088.75 111.374 1088.75 109.991C1088.75 109.082 1088.91 108.282 1089.23 107.591C1089.55 106.9 1090.05 106.303 1090.72 105.801C1091.39 105.299 1092.25 104.887 1093.31 104.565C1094.36 104.234 1095.61 103.978 1097.07 103.798C1098.18 103.666 1099.17 103.538 1100.04 103.415C1100.91 103.282 1101.59 103.079 1102.08 102.804C1102.59 102.529 1102.84 102.113 1102.84 101.554V100.645C1102.84 99.054 1102.34 97.7898 1101.33 96.8523C1100.33 95.9148 1098.95 95.446 1097.18 95.446C1095.62 95.446 1094.31 95.7917 1093.24 96.483C1092.17 97.1648 1091.43 98.0455 1091 99.125L1089.37 98.5142C1089.79 97.4725 1090.39 96.6061 1091.18 95.9148C1091.97 95.2235 1092.88 94.7074 1093.9 94.3665C1094.93 94.0256 1096.01 93.8551 1097.14 93.8551C1098.12 93.8551 1099.04 93.9924 1099.93 94.267C1100.82 94.5417 1101.61 94.9583 1102.3 95.517C1103 96.0758 1103.55 96.7907 1103.96 97.6619C1104.37 98.5237 1104.57 99.5559 1104.57 100.759V116H1102.84V112.065H1102.71C1102.33 112.88 1101.81 113.623 1101.15 114.295C1100.49 114.958 1099.7 115.489 1098.77 115.886C1097.86 116.275 1096.82 116.469 1095.66 116.469ZM1095.83 114.864C1097.2 114.864 1098.41 114.532 1099.46 113.869C1100.52 113.197 1101.35 112.278 1101.94 111.114C1102.54 109.949 1102.84 108.628 1102.84 107.151V103.94C1102.62 104.13 1102.3 104.3 1101.89 104.452C1101.48 104.594 1101.01 104.722 1100.49 104.835C1099.98 104.939 1099.44 105.034 1098.87 105.119C1098.32 105.195 1097.77 105.266 1097.24 105.332C1095.65 105.522 1094.35 105.815 1093.35 106.213C1092.35 106.601 1091.63 107.113 1091.16 107.747C1090.71 108.382 1090.48 109.149 1090.48 110.048C1090.48 111.535 1090.99 112.709 1092.01 113.571C1093.04 114.433 1094.31 114.864 1095.83 114.864ZM1111.84 116V94.1818H1113.53V97.5909H1113.68C1114.16 96.4735 1114.96 95.5786 1116.08 94.9062C1117.21 94.2244 1118.49 93.8835 1119.93 93.8835C1120.08 93.8835 1120.24 93.8835 1120.39 93.8835C1120.54 93.8835 1120.68 93.8883 1120.81 93.8977V95.6449C1120.7 95.6354 1120.56 95.6212 1120.4 95.6023C1120.25 95.5739 1120.06 95.5597 1119.83 95.5597C1118.62 95.5597 1117.54 95.8201 1116.59 96.3409C1115.66 96.8617 1114.92 97.5814 1114.38 98.5C1113.84 99.4091 1113.57 100.451 1113.57 101.625V116H1111.84ZM1132.99 116.455C1131.13 116.455 1129.5 115.967 1128.09 114.991C1126.67 114.007 1125.57 112.662 1124.78 110.957C1123.99 109.253 1123.6 107.321 1123.6 105.162C1123.6 103.003 1124 101.071 1124.79 99.3665C1125.59 97.6619 1126.69 96.3172 1128.1 95.3324C1129.51 94.3475 1131.14 93.8551 1132.97 93.8551C1134.35 93.8551 1135.61 94.1392 1136.75 94.7074C1137.9 95.2756 1138.84 96.0663 1139.59 97.0795C1140.35 98.0928 1140.83 99.267 1141.04 100.602H1139.28C1139 99.125 1138.28 97.9034 1137.15 96.9375C1136.02 95.9621 1134.63 95.4744 1132.99 95.4744C1131.51 95.4744 1130.19 95.8911 1129.04 96.7244C1127.88 97.5483 1126.97 98.6894 1126.31 100.148C1125.65 101.597 1125.32 103.259 1125.32 105.134C1125.32 106.98 1125.64 108.637 1126.28 110.105C1126.93 111.563 1127.83 112.719 1128.98 113.571C1130.14 114.423 1131.47 114.849 1132.99 114.849C1134.06 114.849 1135.03 114.636 1135.91 114.21C1136.8 113.784 1137.55 113.178 1138.14 112.392C1138.74 111.606 1139.13 110.688 1139.32 109.636H1141.08C1140.87 110.981 1140.4 112.165 1139.66 113.188C1138.92 114.21 1137.98 115.01 1136.84 115.588C1135.69 116.166 1134.41 116.455 1132.99 116.455ZM1146.25 116V114.537L1159.09 95.9858V95.8295H1146.96V94.1818H1161.3V95.6733L1148.57 114.196V114.352H1161.81V116H1146.25ZM1169.17 124.182C1168.73 124.182 1168.3 124.134 1167.87 124.04C1167.45 123.945 1167.06 123.822 1166.72 123.67L1167.23 122.151C1168.12 122.491 1168.93 122.615 1169.65 122.52C1170.38 122.425 1171.02 122.094 1171.58 121.526C1172.14 120.957 1172.61 120.124 1173 119.026L1174 116.298L1166 94.1818H1167.86L1174.79 113.77H1174.93L1181.86 94.1818H1183.73L1174.52 119.707C1174.17 120.692 1173.73 121.516 1173.2 122.179C1172.67 122.842 1172.06 123.339 1171.38 123.67C1170.71 124.011 1169.97 124.182 1169.17 124.182ZM1189.14 116V94.1818H1190.83V97.4773H1191C1191.42 96.3788 1192.14 95.5076 1193.16 94.8636C1194.18 94.2197 1195.41 93.8977 1196.85 93.8977C1198.44 93.8977 1199.71 94.2765 1200.67 95.0341C1201.65 95.7917 1202.35 96.8191 1202.78 98.1165H1202.93C1203.36 96.8381 1204.12 95.8153 1205.22 95.0483C1206.33 94.2812 1207.69 93.8977 1209.31 93.8977C1211.42 93.8977 1213.03 94.5653 1214.14 95.9006C1215.26 97.2263 1215.82 99.0445 1215.82 101.355V116H1214.08V101.355C1214.08 99.5369 1213.65 98.107 1212.78 97.0653C1211.91 96.0237 1210.63 95.5028 1208.94 95.5028C1207.14 95.5028 1205.76 96.0663 1204.79 97.1932C1203.83 98.3201 1203.35 99.7547 1203.35 101.497V116H1201.61V101.241C1201.61 99.5464 1201.19 98.1686 1200.33 97.108C1199.48 96.0379 1198.2 95.5028 1196.5 95.5028C1195.34 95.5028 1194.34 95.768 1193.5 96.2983C1192.67 96.8286 1192.02 97.5578 1191.56 98.4858C1191.1 99.4138 1190.87 100.479 1190.87 101.682V116H1189.14ZM1223.62 124.182C1223.18 124.182 1222.75 124.134 1222.33 124.04C1221.9 123.945 1221.52 123.822 1221.18 123.67L1221.69 122.151C1222.58 122.491 1223.38 122.615 1224.1 122.52C1224.83 122.425 1225.47 122.094 1226.03 121.526C1226.59 120.957 1227.07 120.124 1227.45 119.026L1228.45 116.298L1220.45 94.1818H1222.31L1229.24 113.77H1229.39L1236.32 94.1818H1238.18L1228.97 119.707C1228.62 120.692 1228.18 121.516 1227.65 122.179C1227.12 122.842 1226.52 123.339 1225.83 123.67C1225.16 124.011 1224.42 124.182 1223.62 124.182ZM1253.52 88.5568V86.9091H1273.91V88.5568H1264.6V116H1262.83V88.5568H1253.52ZM1282.02 116L1275.49 94.1818H1277.31L1282.93 113.457H1283.09L1288.73 94.1818H1290.53L1296.16 113.443H1296.3L1301.92 94.1818H1303.74L1297.21 116H1295.28L1289.71 97.0085H1289.52L1283.96 116H1282.02ZM1316.51 116.455C1314.71 116.455 1313.11 115.972 1311.71 115.006C1310.31 114.03 1309.2 112.69 1308.4 110.986C1307.59 109.281 1307.19 107.34 1307.19 105.162C1307.19 102.974 1307.59 101.033 1308.4 99.3381C1309.2 97.6335 1310.31 96.2936 1311.71 95.3182C1313.11 94.3428 1314.71 93.8551 1316.51 93.8551C1318.31 93.8551 1319.91 94.3428 1321.31 95.3182C1322.71 96.2936 1323.82 97.6335 1324.62 99.3381C1325.42 101.043 1325.83 102.984 1325.83 105.162C1325.83 107.34 1325.42 109.281 1324.62 110.986C1323.82 112.69 1322.71 114.03 1321.31 115.006C1319.91 115.972 1318.31 116.455 1316.51 116.455ZM1316.51 114.849C1318.03 114.849 1319.36 114.419 1320.5 113.557C1321.65 112.695 1322.53 111.53 1323.16 110.062C1323.79 108.595 1324.11 106.961 1324.11 105.162C1324.11 103.363 1323.79 101.734 1323.16 100.276C1322.52 98.8078 1321.64 97.643 1320.5 96.7812C1319.36 95.91 1318.03 95.4744 1316.51 95.4744C1314.98 95.4744 1313.65 95.91 1312.52 96.7812C1311.38 97.643 1310.5 98.8078 1309.86 100.276C1309.23 101.734 1308.91 103.363 1308.91 105.162C1308.91 106.961 1309.22 108.595 1309.85 110.062C1310.48 111.53 1311.37 112.695 1312.5 113.557C1313.65 114.419 1314.98 114.849 1316.51 114.849ZM1331.88 94.1818H1333.6V118.656C1333.6 119.783 1333.37 120.759 1332.9 121.582C1332.44 122.416 1331.8 123.055 1330.99 123.5C1330.18 123.955 1329.25 124.182 1328.19 124.182C1328.11 124.182 1328.03 124.177 1327.95 124.168C1327.86 124.168 1327.76 124.158 1327.65 124.139L1327.73 122.534C1327.81 122.534 1327.88 122.534 1327.95 122.534C1328.01 122.534 1328.08 122.534 1328.16 122.534C1329.22 122.534 1330.11 122.188 1330.82 121.497C1331.53 120.815 1331.88 119.868 1331.88 118.656V94.1818ZM1332.73 90.3182C1332.35 90.3182 1332.01 90.1856 1331.74 89.9205C1331.47 89.6553 1331.33 89.3333 1331.33 88.9545C1331.33 88.5758 1331.47 88.2538 1331.74 87.9886C1332.01 87.7235 1332.35 87.5909 1332.73 87.5909C1333.11 87.5909 1333.44 87.7235 1333.71 87.9886C1333.99 88.2538 1334.13 88.5758 1334.13 88.9545C1334.13 89.3333 1333.99 89.6553 1333.71 89.9205C1333.44 90.1856 1333.11 90.3182 1332.73 90.3182ZM1346.64 116.469C1345.38 116.469 1344.23 116.218 1343.17 115.716C1342.13 115.214 1341.29 114.48 1340.66 113.514C1340.04 112.548 1339.72 111.374 1339.72 109.991C1339.72 109.082 1339.88 108.282 1340.21 107.591C1340.53 106.9 1341.03 106.303 1341.7 105.801C1342.37 105.299 1343.23 104.887 1344.28 104.565C1345.33 104.234 1346.59 103.978 1348.05 103.798C1349.15 103.666 1350.14 103.538 1351.02 103.415C1351.89 103.282 1352.57 103.079 1353.06 102.804C1353.56 102.529 1353.81 102.113 1353.81 101.554V100.645C1353.81 99.054 1353.31 97.7898 1352.31 96.8523C1351.3 95.9148 1349.92 95.446 1348.16 95.446C1346.6 95.446 1345.28 95.7917 1344.21 96.483C1343.15 97.1648 1342.41 98.0455 1341.98 99.125L1340.35 98.5142C1340.76 97.4725 1341.37 96.6061 1342.15 95.9148C1342.95 95.2235 1343.86 94.7074 1344.88 94.3665C1345.91 94.0256 1346.99 93.8551 1348.12 93.8551C1349.09 93.8551 1350.02 93.9924 1350.9 94.267C1351.79 94.5417 1352.58 94.9583 1353.27 95.517C1353.97 96.0758 1354.53 96.7907 1354.94 97.6619C1355.34 98.5237 1355.55 99.5559 1355.55 100.759V116H1353.81V112.065H1353.69C1353.31 112.88 1352.79 113.623 1352.12 114.295C1351.47 114.958 1350.68 115.489 1349.75 115.886C1348.83 116.275 1347.8 116.469 1346.64 116.469ZM1346.81 114.864C1348.17 114.864 1349.38 114.532 1350.43 113.869C1351.49 113.197 1352.32 112.278 1352.92 111.114C1353.52 109.949 1353.81 108.628 1353.81 107.151V103.94C1353.6 104.13 1353.28 104.3 1352.86 104.452C1352.46 104.594 1351.99 104.722 1351.47 104.835C1350.96 104.939 1350.42 105.034 1349.85 105.119C1349.29 105.195 1348.75 105.266 1348.22 105.332C1346.63 105.522 1345.33 105.815 1344.33 106.213C1343.33 106.601 1342.6 107.113 1342.14 107.747C1341.68 108.382 1341.46 109.149 1341.46 110.048C1341.46 111.535 1341.97 112.709 1342.99 113.571C1344.01 114.433 1345.29 114.864 1346.81 114.864ZM1354.2 124.594C1353.16 124.594 1352.3 124.3 1351.63 123.713C1350.95 123.126 1350.62 122.264 1350.62 121.128C1350.62 120.437 1350.76 119.778 1351.04 119.153C1351.33 118.528 1351.75 117.922 1352.32 117.335C1352.89 116.758 1353.59 116.18 1354.42 115.602L1355.53 116C1354.6 116.862 1353.84 117.686 1353.25 118.472C1352.65 119.267 1352.35 120.105 1352.35 120.986C1352.35 121.677 1352.54 122.193 1352.9 122.534C1353.28 122.875 1353.81 123.045 1354.48 123.045C1354.9 123.045 1355.26 122.984 1355.58 122.861C1355.9 122.747 1356.21 122.586 1356.5 122.378L1356.94 123.713C1356.56 123.969 1356.15 124.177 1355.7 124.338C1355.27 124.509 1354.77 124.594 1354.2 124.594ZM1374.06 124.182V94.1818H1375.75V99.054H1375.97C1376.31 98.1165 1376.79 97.2547 1377.4 96.4688C1378.03 95.6828 1378.8 95.053 1379.72 94.5795C1380.64 94.0966 1381.73 93.8551 1382.98 93.8551C1384.74 93.8551 1386.28 94.3381 1387.59 95.304C1388.89 96.2699 1389.91 97.6051 1390.62 99.3097C1391.34 101.005 1391.7 102.951 1391.7 105.148C1391.7 107.345 1391.34 109.295 1390.61 111C1389.89 112.695 1388.88 114.03 1387.57 115.006C1386.27 115.972 1384.75 116.455 1383.01 116.455C1381.77 116.455 1380.68 116.218 1379.74 115.744C1378.82 115.271 1378.04 114.641 1377.4 113.855C1376.78 113.06 1376.3 112.188 1375.97 111.241H1375.8V124.182H1374.06ZM1375.77 105.134C1375.77 106.99 1376.05 108.652 1376.62 110.119C1377.19 111.578 1378 112.733 1379.06 113.585C1380.12 114.428 1381.39 114.849 1382.86 114.849C1384.34 114.849 1385.62 114.423 1386.68 113.571C1387.75 112.709 1388.56 111.545 1389.12 110.077C1389.69 108.609 1389.97 106.961 1389.97 105.134C1389.97 103.306 1389.69 101.663 1389.13 100.205C1388.57 98.7462 1387.77 97.5956 1386.7 96.7528C1385.64 95.9006 1384.36 95.4744 1382.86 95.4744C1381.37 95.4744 1380.09 95.8958 1379.03 96.7386C1377.98 97.572 1377.17 98.7178 1376.61 100.176C1376.05 101.625 1375.77 103.277 1375.77 105.134ZM1403.48 116.469C1402.22 116.469 1401.06 116.218 1400.01 115.716C1398.97 115.214 1398.13 114.48 1397.5 113.514C1396.87 112.548 1396.56 111.374 1396.56 109.991C1396.56 109.082 1396.72 108.282 1397.04 107.591C1397.36 106.9 1397.86 106.303 1398.53 105.801C1399.21 105.299 1400.07 104.887 1401.12 104.565C1402.17 104.234 1403.42 103.978 1404.88 103.798C1405.99 103.666 1406.98 103.538 1407.85 103.415C1408.72 103.282 1409.4 103.079 1409.9 102.804C1410.4 102.529 1410.65 102.113 1410.65 101.554V100.645C1410.65 99.054 1410.15 97.7898 1409.14 96.8523C1408.14 95.9148 1406.76 95.446 1405 95.446C1403.43 95.446 1402.12 95.7917 1401.05 96.483C1399.99 97.1648 1399.24 98.0455 1398.82 99.125L1397.18 98.5142C1397.6 97.4725 1398.2 96.6061 1398.99 95.9148C1399.78 95.2235 1400.69 94.7074 1401.72 94.3665C1402.75 94.0256 1403.83 93.8551 1404.95 93.8551C1405.93 93.8551 1406.86 93.9924 1407.74 94.267C1408.63 94.5417 1409.42 94.9583 1410.11 95.517C1410.81 96.0758 1411.36 96.7907 1411.77 97.6619C1412.18 98.5237 1412.38 99.5559 1412.38 100.759V116H1410.65V112.065H1410.52C1410.14 112.88 1409.62 113.623 1408.96 114.295C1408.31 114.958 1407.52 115.489 1406.59 115.886C1405.67 116.275 1404.63 116.469 1403.48 116.469ZM1403.65 114.864C1405.01 114.864 1406.22 114.532 1407.27 113.869C1408.33 113.197 1409.16 112.278 1409.75 111.114C1410.35 109.949 1410.65 108.628 1410.65 107.151V103.94C1410.43 104.13 1410.11 104.3 1409.7 104.452C1409.29 104.594 1408.83 104.722 1408.31 104.835C1407.79 104.939 1407.25 105.034 1406.69 105.119C1406.13 105.195 1405.58 105.266 1405.05 105.332C1403.46 105.522 1402.17 105.815 1401.16 106.213C1400.17 106.601 1399.44 107.113 1398.97 107.747C1398.52 108.382 1398.29 109.149 1398.29 110.048C1398.29 111.535 1398.8 112.709 1399.83 113.571C1400.85 114.433 1402.12 114.864 1403.65 114.864ZM1427.83 116.455C1425.97 116.455 1424.34 115.967 1422.93 114.991C1421.52 114.007 1420.42 112.662 1419.62 110.957C1418.83 109.253 1418.44 107.321 1418.44 105.162C1418.44 103.003 1418.84 101.071 1419.63 99.3665C1420.43 97.6619 1421.53 96.3172 1422.94 95.3324C1424.35 94.3475 1425.98 93.8551 1427.82 93.8551C1429.2 93.8551 1430.46 94.1392 1431.59 94.7074C1432.74 95.2756 1433.69 96.0663 1434.44 97.0795C1435.19 98.0928 1435.68 99.267 1435.88 100.602H1434.12C1433.84 99.125 1433.13 97.9034 1431.99 96.9375C1430.87 95.9621 1429.48 95.4744 1427.83 95.4744C1426.35 95.4744 1425.04 95.8911 1423.88 96.7244C1422.73 97.5483 1421.82 98.6894 1421.15 100.148C1420.49 101.597 1420.16 103.259 1420.16 105.134C1420.16 106.98 1420.48 108.637 1421.13 110.105C1421.77 111.563 1422.67 112.719 1423.82 113.571C1424.98 114.423 1426.32 114.849 1427.83 114.849C1428.9 114.849 1429.88 114.636 1430.76 114.21C1431.65 113.784 1432.39 113.178 1432.99 112.392C1433.58 111.606 1433.98 110.688 1434.17 109.636H1435.93C1435.72 110.981 1435.25 112.165 1434.51 113.188C1433.77 114.21 1432.83 115.01 1431.68 115.588C1430.53 116.166 1429.25 116.455 1427.83 116.455ZM1441.1 116V114.537L1453.94 95.9858V95.8295H1441.81V94.1818H1456.14V95.6733L1443.41 114.196V114.352H1456.65V116H1441.1ZM1464.12 107.477L1464.09 104.991H1464.55L1475.46 94.1818H1477.72L1467.7 104.125L1467.53 104.196L1464.12 107.477ZM1462.62 116V86.9091H1464.35V116H1462.62ZM1475.96 116L1466.75 104.366L1468 103.216L1478.17 116H1475.96ZM1490.46 116.455C1488.49 116.455 1486.78 115.967 1485.32 114.991C1483.86 114.016 1482.73 112.681 1481.94 110.986C1481.14 109.291 1480.75 107.359 1480.75 105.19C1480.75 103.012 1481.14 101.071 1481.94 99.3665C1482.74 97.6619 1483.85 96.3172 1485.25 95.3324C1486.65 94.3475 1488.25 93.8551 1490.05 93.8551C1491.27 93.8551 1492.43 94.1013 1493.52 94.5938C1494.61 95.0767 1495.58 95.7775 1496.41 96.696C1497.26 97.6146 1497.91 98.7225 1498.39 100.02C1498.87 101.317 1499.11 102.776 1499.11 104.395V105.474H1481.84V103.898H1497.38C1497.38 102.316 1497.06 100.891 1496.41 99.6222C1495.77 98.3532 1494.89 97.3447 1493.79 96.5966C1492.68 95.8485 1491.43 95.4744 1490.05 95.4744C1488.6 95.4744 1487.31 95.8816 1486.17 96.696C1485.04 97.5009 1484.15 98.59 1483.49 99.9631C1482.83 101.336 1482.49 102.87 1482.46 104.565V105.276C1482.46 107.094 1482.78 108.727 1483.42 110.176C1484.06 111.616 1484.98 112.757 1486.17 113.599C1487.37 114.433 1488.79 114.849 1490.46 114.849C1491.65 114.849 1492.67 114.651 1493.52 114.253C1494.37 113.846 1495.06 113.353 1495.6 112.776C1496.14 112.198 1496.55 111.639 1496.83 111.099L1498.4 111.739C1498.07 112.468 1497.55 113.197 1496.85 113.926C1496.16 114.646 1495.28 115.247 1494.21 115.73C1493.15 116.213 1491.9 116.455 1490.46 116.455ZM1490.35 124.594C1489.31 124.594 1488.45 124.3 1487.78 123.713C1487.1 123.126 1486.77 122.264 1486.77 121.128C1486.77 120.437 1486.91 119.778 1487.19 119.153C1487.48 118.528 1487.9 117.922 1488.47 117.335C1489.04 116.758 1489.74 116.18 1490.58 115.602L1491.68 116C1490.76 116.862 1489.99 117.686 1489.4 118.472C1488.8 119.267 1488.5 120.105 1488.5 120.986C1488.5 121.677 1488.69 122.193 1489.06 122.534C1489.43 122.875 1489.96 123.045 1490.63 123.045C1491.05 123.045 1491.41 122.984 1491.73 122.861C1492.05 122.747 1492.36 122.586 1492.65 122.378L1493.09 123.713C1492.71 123.969 1492.3 124.177 1491.85 124.338C1491.42 124.509 1490.92 124.594 1490.35 124.594ZM1527.39 102.705V104.352H1515.92V102.705H1527.39ZM1547.16 101.852V116H1545.43V94.1818H1547.12V97.6335H1547.29C1547.8 96.5066 1548.62 95.6023 1549.75 94.9205C1550.87 94.2386 1552.21 93.8977 1553.77 93.8977C1555.24 93.8977 1556.52 94.2102 1557.63 94.8352C1558.75 95.4602 1559.62 96.3504 1560.25 97.5057C1560.88 98.6515 1561.2 100.02 1561.2 101.611V116H1559.46V101.682C1559.46 99.8258 1558.91 98.3343 1557.8 97.2074C1556.7 96.071 1555.25 95.5028 1553.44 95.5028C1552.23 95.5028 1551.15 95.768 1550.2 96.2983C1549.26 96.8286 1548.51 97.572 1547.97 98.5284C1547.43 99.4754 1547.16 100.583 1547.16 101.852ZM1574.18 116.469C1572.92 116.469 1571.76 116.218 1570.71 115.716C1569.67 115.214 1568.83 114.48 1568.2 113.514C1567.57 112.548 1567.26 111.374 1567.26 109.991C1567.26 109.082 1567.42 108.282 1567.75 107.591C1568.07 106.9 1568.56 106.303 1569.24 105.801C1569.91 105.299 1570.77 104.887 1571.82 104.565C1572.87 104.234 1574.13 103.978 1575.59 103.798C1576.69 103.666 1577.68 103.538 1578.55 103.415C1579.43 103.282 1580.11 103.079 1580.6 102.804C1581.1 102.529 1581.35 102.113 1581.35 101.554V100.645C1581.35 99.054 1580.85 97.7898 1579.85 96.8523C1578.84 95.9148 1577.46 95.446 1575.7 95.446C1574.14 95.446 1572.82 95.7917 1571.75 96.483C1570.69 97.1648 1569.95 98.0455 1569.52 99.125L1567.89 98.5142C1568.3 97.4725 1568.91 96.6061 1569.69 95.9148C1570.49 95.2235 1571.4 94.7074 1572.42 94.3665C1573.45 94.0256 1574.53 93.8551 1575.66 93.8551C1576.63 93.8551 1577.56 93.9924 1578.44 94.267C1579.33 94.5417 1580.12 94.9583 1580.81 95.517C1581.51 96.0758 1582.07 96.7907 1582.48 97.6619C1582.88 98.5237 1583.09 99.5559 1583.09 100.759V116H1581.35V112.065H1581.23C1580.85 112.88 1580.33 113.623 1579.66 114.295C1579.01 114.958 1578.22 115.489 1577.29 115.886C1576.37 116.275 1575.33 116.469 1574.18 116.469ZM1574.35 114.864C1575.71 114.864 1576.92 114.532 1577.97 113.869C1579.03 113.197 1579.86 112.278 1580.46 111.114C1581.05 109.949 1581.35 108.628 1581.35 107.151V103.94C1581.14 104.13 1580.82 104.3 1580.4 104.452C1579.99 104.594 1579.53 104.722 1579.01 104.835C1578.5 104.939 1577.96 105.034 1577.39 105.119C1576.83 105.195 1576.29 105.266 1575.76 105.332C1574.17 105.522 1572.87 105.815 1571.86 106.213C1570.87 106.601 1570.14 107.113 1569.68 107.747C1569.22 108.382 1569 109.149 1569 110.048C1569 111.535 1569.51 112.709 1570.53 113.571C1571.55 114.433 1572.83 114.864 1574.35 114.864ZM1598.06 94.1818V95.7301H1588.53V94.1818H1598.06ZM1591.76 88.9545H1593.48V110.844C1593.48 111.734 1593.65 112.463 1593.99 113.031C1594.34 113.59 1594.79 114.007 1595.35 114.281C1595.92 114.546 1596.53 114.679 1597.17 114.679C1597.48 114.679 1597.75 114.655 1597.98 114.608C1598.22 114.561 1598.44 114.499 1598.65 114.423L1599.07 116C1598.81 116.095 1598.51 116.175 1598.19 116.241C1597.87 116.317 1597.49 116.355 1597.06 116.355C1596.15 116.355 1595.29 116.152 1594.47 115.744C1593.67 115.337 1593.01 114.745 1592.51 113.969C1592.01 113.192 1591.76 112.255 1591.76 111.156V88.9545ZM1605.88 124.182C1605.45 124.182 1605.02 124.134 1604.59 124.04C1604.17 123.945 1603.78 123.822 1603.44 123.67L1603.95 122.151C1604.84 122.491 1605.65 122.615 1606.37 122.52C1607.1 122.425 1607.74 122.094 1608.3 121.526C1608.86 120.957 1609.33 120.124 1609.72 119.026L1610.71 116.298L1602.72 94.1818H1604.58L1611.51 113.77H1611.65L1618.58 94.1818H1620.44L1611.24 119.707C1610.89 120.692 1610.45 121.516 1609.92 122.179C1609.39 122.842 1608.78 123.339 1608.1 123.67C1607.43 124.011 1606.69 124.182 1605.88 124.182ZM1633.26 116.455C1631.4 116.455 1629.77 115.967 1628.36 114.991C1626.95 114.007 1625.85 112.662 1625.05 110.957C1624.26 109.253 1623.87 107.321 1623.87 105.162C1623.87 103.003 1624.27 101.071 1625.06 99.3665C1625.86 97.6619 1626.96 96.3172 1628.37 95.3324C1629.78 94.3475 1631.41 93.8551 1633.25 93.8551C1634.63 93.8551 1635.89 94.1392 1637.02 94.7074C1638.17 95.2756 1639.12 96.0663 1639.87 97.0795C1640.62 98.0928 1641.11 99.267 1641.31 100.602H1639.55C1639.27 99.125 1638.56 97.9034 1637.42 96.9375C1636.29 95.9621 1634.91 95.4744 1633.26 95.4744C1631.78 95.4744 1630.47 95.8911 1629.31 96.7244C1628.16 97.5483 1627.25 98.6894 1626.58 100.148C1625.92 101.597 1625.59 103.259 1625.59 105.134C1625.59 106.98 1625.91 108.637 1626.56 110.105C1627.2 111.563 1628.1 112.719 1629.25 113.571C1630.41 114.423 1631.74 114.849 1633.26 114.849C1634.33 114.849 1635.31 114.636 1636.19 114.21C1637.08 113.784 1637.82 113.178 1638.42 112.392C1639.01 111.606 1639.41 110.688 1639.6 109.636H1641.36C1641.15 110.981 1640.67 112.165 1639.94 113.188C1639.2 114.21 1638.26 115.01 1637.11 115.588C1635.96 116.166 1634.68 116.455 1633.26 116.455ZM1649 101.852V116H1647.27V86.9091H1649V97.6335H1649.17C1649.68 96.4972 1650.49 95.5928 1651.61 94.9205C1652.74 94.2386 1654.09 93.8977 1655.66 93.8977C1657.13 93.8977 1658.42 94.2102 1659.54 94.8352C1660.66 95.4508 1661.53 96.3362 1662.15 97.4915C1662.79 98.6373 1663.1 100.01 1663.1 101.611V116H1661.38V101.682C1661.38 99.8163 1660.83 98.3201 1659.72 97.1932C1658.62 96.0663 1657.15 95.5028 1655.33 95.5028C1654.11 95.5028 1653.02 95.768 1652.07 96.2983C1651.11 96.8286 1650.36 97.572 1649.81 98.5284C1649.27 99.4754 1649 100.583 1649 101.852ZM1670.27 116V94.1818H1671.96V97.4773H1672.13C1672.55 96.3788 1673.27 95.5076 1674.29 94.8636C1675.32 94.2197 1676.55 93.8977 1677.99 93.8977C1679.57 93.8977 1680.84 94.2765 1681.81 95.0341C1682.78 95.7917 1683.48 96.8191 1683.91 98.1165H1684.07C1684.49 96.8381 1685.25 95.8153 1686.35 95.0483C1687.46 94.2812 1688.82 93.8977 1690.44 93.8977C1692.56 93.8977 1694.17 94.5653 1695.27 95.9006C1696.39 97.2263 1696.95 99.0445 1696.95 101.355V116H1695.22V101.355C1695.22 99.5369 1694.78 98.107 1693.91 97.0653C1693.04 96.0237 1691.76 95.5028 1690.07 95.5028C1688.28 95.5028 1686.89 96.0663 1685.93 97.1932C1684.96 98.3201 1684.48 99.7547 1684.48 101.497V116H1682.75V101.241C1682.75 99.5464 1682.32 98.1686 1681.47 97.108C1680.61 96.0379 1679.34 95.5028 1677.63 95.5028C1676.48 95.5028 1675.48 95.768 1674.63 96.2983C1673.8 96.8286 1673.15 97.5578 1672.69 98.4858C1672.23 99.4138 1672.01 100.479 1672.01 101.682V116H1670.27ZM1704.23 116V94.1818H1705.94V116H1704.23ZM1705.09 90.3182C1704.71 90.3182 1704.38 90.1856 1704.1 89.9205C1703.82 89.6553 1703.69 89.3333 1703.69 88.9545C1703.69 88.5758 1703.82 88.2538 1704.1 87.9886C1704.37 87.7235 1704.7 87.5909 1705.09 87.5909C1705.47 87.5909 1705.8 87.7235 1706.07 87.9886C1706.36 88.2538 1706.5 88.5758 1706.5 88.9545C1706.5 89.3333 1706.36 89.6553 1706.09 89.9205C1705.81 90.1856 1705.48 90.3182 1705.09 90.3182ZM1718.98 116.469C1717.72 116.469 1716.57 116.218 1715.52 115.716C1714.48 115.214 1713.64 114.48 1713 113.514C1712.38 112.548 1712.07 111.374 1712.07 109.991C1712.07 109.082 1712.23 108.282 1712.55 107.591C1712.87 106.9 1713.37 106.303 1714.04 105.801C1714.71 105.299 1715.58 104.887 1716.63 104.565C1717.68 104.234 1718.93 103.978 1720.39 103.798C1721.5 103.666 1722.49 103.538 1723.36 103.415C1724.23 103.282 1724.91 103.079 1725.4 102.804C1725.91 102.529 1726.16 102.113 1726.16 101.554V100.645C1726.16 99.054 1725.66 97.7898 1724.65 96.8523C1723.65 95.9148 1722.27 95.446 1720.5 95.446C1718.94 95.446 1717.63 95.7917 1716.56 96.483C1715.49 97.1648 1714.75 98.0455 1714.33 99.125L1712.69 98.5142C1713.11 97.4725 1713.71 96.6061 1714.5 95.9148C1715.29 95.2235 1716.2 94.7074 1717.22 94.3665C1718.26 94.0256 1719.33 93.8551 1720.46 93.8551C1721.44 93.8551 1722.37 93.9924 1723.25 94.267C1724.14 94.5417 1724.93 94.9583 1725.62 95.517C1726.32 96.0758 1726.87 96.7907 1727.28 97.6619C1727.69 98.5237 1727.89 99.5559 1727.89 100.759V116H1726.16V112.065H1726.03C1725.65 112.88 1725.13 113.623 1724.47 114.295C1723.81 114.958 1723.02 115.489 1722.1 115.886C1721.18 116.275 1720.14 116.469 1718.98 116.469ZM1719.15 114.864C1720.52 114.864 1721.73 114.532 1722.78 113.869C1723.84 113.197 1724.67 112.278 1725.26 111.114C1725.86 109.949 1726.16 108.628 1726.16 107.151V103.94C1725.94 104.13 1725.62 104.3 1725.21 104.452C1724.8 104.594 1724.33 104.722 1723.81 104.835C1723.3 104.939 1722.76 105.034 1722.19 105.119C1721.64 105.195 1721.09 105.266 1720.56 105.332C1718.97 105.522 1717.67 105.815 1716.67 106.213C1715.67 106.601 1714.95 107.113 1714.48 107.747C1714.03 108.382 1713.8 109.149 1713.8 110.048C1713.8 111.535 1714.31 112.709 1715.33 113.571C1716.36 114.433 1717.63 114.864 1719.15 114.864ZM1749.02 98.8835L1747.41 99.3097C1747.16 98.5142 1746.79 97.8277 1746.32 97.25C1745.85 96.6723 1745.25 96.2273 1744.53 95.9148C1743.82 95.5928 1742.97 95.4318 1741.97 95.4318C1740.37 95.4318 1739.06 95.8295 1738.04 96.625C1737.03 97.4205 1736.52 98.4574 1736.52 99.7358C1736.52 100.777 1736.87 101.639 1737.56 102.321C1738.25 102.993 1739.3 103.505 1740.72 103.855L1744.08 104.693C1745.8 105.119 1747.1 105.811 1747.97 106.767C1748.84 107.714 1749.28 108.893 1749.28 110.304C1749.28 111.507 1748.95 112.572 1748.3 113.5C1747.64 114.428 1746.74 115.152 1745.58 115.673C1744.44 116.194 1743.1 116.455 1741.58 116.455C1739.54 116.455 1737.87 115.981 1736.56 115.034C1735.26 114.078 1734.42 112.709 1734.05 110.929L1735.71 110.503C1736.02 111.923 1736.67 113.008 1737.66 113.756C1738.65 114.494 1739.95 114.864 1741.56 114.864C1743.34 114.864 1744.78 114.442 1745.87 113.599C1746.96 112.757 1747.51 111.677 1747.51 110.361C1747.51 109.357 1747.19 108.509 1746.55 107.818C1745.9 107.127 1744.93 106.62 1743.62 106.298L1740.14 105.446C1738.36 105.01 1737.03 104.314 1736.14 103.358C1735.25 102.392 1734.8 101.204 1734.8 99.7926C1734.8 98.6184 1735.11 97.5862 1735.72 96.696C1736.34 95.8059 1737.19 95.1098 1738.27 94.608C1739.35 94.1061 1740.58 93.8551 1741.97 93.8551C1743.82 93.8551 1745.33 94.2907 1746.49 95.1619C1747.66 96.0331 1748.5 97.2737 1749.02 98.8835ZM1762.99 94.1818V95.7301H1753.46V94.1818H1762.99ZM1756.68 88.9545H1758.4V110.844C1758.4 111.734 1758.57 112.463 1758.91 113.031C1759.26 113.59 1759.71 114.007 1760.27 114.281C1760.84 114.546 1761.45 114.679 1762.09 114.679C1762.4 114.679 1762.67 114.655 1762.9 114.608C1763.14 114.561 1763.36 114.499 1763.57 114.423L1764 116C1763.73 116.095 1763.44 116.175 1763.11 116.241C1762.79 116.317 1762.41 116.355 1761.98 116.355C1761.07 116.355 1760.21 116.152 1759.39 115.744C1758.59 115.337 1757.93 114.745 1757.43 113.969C1756.93 113.192 1756.68 112.255 1756.68 111.156V88.9545Z" fill="white"/>
<path d="M21.1364 28.7273V116H10.5682V28.7273H21.1364ZM111.531 28.7273V116H101.303L53.7464 47.4773H52.8942V116H42.326V28.7273H52.5533L100.281 97.4205H101.133V28.7273H111.531ZM180.405 50.5455C179.893 46.2273 177.82 42.875 174.183 40.4886C170.547 38.1023 166.087 36.9091 160.803 36.9091C156.939 36.9091 153.558 37.5341 150.661 38.7841C147.791 40.0341 145.547 41.7528 143.928 43.9403C142.337 46.1278 141.541 48.6136 141.541 51.3977C141.541 53.7273 142.095 55.7301 143.203 57.4062C144.339 59.054 145.788 60.4318 147.55 61.5398C149.311 62.6193 151.158 63.5142 153.089 64.2244C155.021 64.9062 156.797 65.4602 158.416 65.8864L167.28 68.2727C169.553 68.8693 172.081 69.6932 174.865 70.7443C177.678 71.7955 180.362 73.2301 182.919 75.0483C185.504 76.8381 187.635 79.1392 189.311 81.9517C190.987 84.7642 191.825 88.2159 191.825 92.3068C191.825 97.0227 190.589 101.284 188.118 105.091C185.675 108.898 182.095 111.923 177.379 114.168C172.692 116.412 166.996 117.534 160.291 117.534C154.041 117.534 148.629 116.526 144.055 114.509C139.51 112.491 135.93 109.679 133.317 106.071C130.732 102.463 129.268 98.2727 128.928 93.5H139.837C140.121 96.7955 141.229 99.5227 143.161 101.682C145.121 103.812 147.592 105.403 150.575 106.455C153.587 107.477 156.825 107.989 160.291 107.989C164.325 107.989 167.947 107.335 171.158 106.028C174.368 104.693 176.911 102.847 178.786 100.489C180.661 98.1023 181.598 95.3182 181.598 92.1364C181.598 89.2386 180.788 86.8807 179.169 85.0625C177.55 83.2443 175.419 81.767 172.777 80.6307C170.135 79.4943 167.28 78.5 164.212 77.6477L153.473 74.5795C146.655 72.6193 141.257 69.821 137.28 66.1847C133.303 62.5483 131.314 57.7898 131.314 51.9091C131.314 47.0227 132.635 42.7614 135.277 39.125C137.947 35.4602 141.527 32.6193 146.016 30.6023C150.533 28.5568 155.575 27.5341 161.143 27.5341C166.768 27.5341 171.768 28.5426 176.143 30.5597C180.518 32.5483 183.984 35.2756 186.541 38.7415C189.126 42.2074 190.49 46.142 190.632 50.5455H180.405ZM204.428 38.1023V28.7273H269.883V38.1023H242.44V116H231.871V38.1023H204.428ZM279.577 116H268.498L300.543 28.7273H311.452L343.498 116H332.418L306.339 42.5341H305.657L279.577 116ZM283.668 81.9091H328.327V91.2841H283.668V81.9091ZM358.626 73.7273V72.3636H388.114V73.7273H374.052V116H372.688V73.7273H358.626ZM398.576 116V72.3636H411.36C413.803 72.3636 415.962 72.8821 417.837 73.919C419.727 74.956 421.204 76.4048 422.269 78.2656C423.349 80.1264 423.888 82.3068 423.888 84.8068C423.888 87.2784 423.349 89.4446 422.269 91.3054C421.204 93.152 419.727 94.5937 417.837 95.6307C415.962 96.6534 413.803 97.1648 411.36 97.1648H399.258V95.8011H411.36C413.548 95.8011 415.479 95.3466 417.156 94.4375C418.832 93.5284 420.146 92.25 421.097 90.6023C422.049 88.9545 422.525 87.0227 422.525 84.8068C422.525 82.5767 422.049 80.6307 421.097 78.9688C420.146 77.3068 418.832 76.0213 417.156 75.1122C415.479 74.1889 413.548 73.7273 411.36 73.7273H399.94V116H398.576ZM415.195 96.142L425.934 116H424.4L413.661 96.142H415.195ZM432.081 116H430.632L446.229 72.3636H448.104L463.7 116H462.251L447.251 74.0682H447.081L432.081 116ZM437.024 99.892H457.308V101.256H437.024V99.892ZM505.19 72.3636V116H503.826L473.997 74.9205H473.826V116H472.463V72.3636H473.826L503.656 113.443H503.826V72.3636H505.19ZM542.163 83.2727C541.95 80.2898 540.806 77.8395 538.732 75.9219C536.673 74.0043 533.952 73.0455 530.572 73.0455C528.356 73.0455 526.374 73.4716 524.627 74.3239C522.88 75.1761 521.502 76.348 520.494 77.8395C519.485 79.3168 518.981 81.0142 518.981 82.9318C518.981 84.0398 519.165 85.0625 519.535 86C519.904 86.9375 520.465 87.7969 521.218 88.5781C521.985 89.3452 522.944 90.0412 524.094 90.6662C525.259 91.277 526.623 91.8239 528.185 92.3068L533.129 93.8409C535.018 94.4233 536.651 95.0767 538.029 95.8011C539.407 96.5256 540.543 97.3423 541.438 98.2514C542.347 99.1463 543.022 100.148 543.462 101.256C543.903 102.349 544.123 103.571 544.123 104.92C544.123 107.193 543.54 109.217 542.376 110.993C541.211 112.768 539.585 114.161 537.496 115.169C535.408 116.178 532.987 116.682 530.231 116.682C527.575 116.682 525.252 116.22 523.263 115.297C521.275 114.359 519.698 113.074 518.533 111.44C517.383 109.793 516.737 107.903 516.594 105.773H517.958C518.1 107.648 518.69 109.303 519.727 110.737C520.763 112.172 522.17 113.294 523.945 114.104C525.735 114.913 527.83 115.318 530.231 115.318C532.731 115.318 534.918 114.885 536.793 114.018C538.683 113.138 540.146 111.916 541.183 110.354C542.234 108.791 542.759 106.98 542.759 104.92C542.759 103.358 542.418 101.987 541.737 100.808C541.055 99.6151 539.982 98.5639 538.519 97.6548C537.056 96.7457 535.146 95.929 532.788 95.2045L527.844 93.6705C524.421 92.5909 521.857 91.1634 520.153 89.3878C518.462 87.6122 517.617 85.4602 517.617 82.9318C517.617 80.7869 518.178 78.8693 519.3 77.179C520.423 75.4744 521.957 74.1321 523.903 73.152C525.863 72.1719 528.086 71.6818 530.572 71.6818C533.072 71.6818 535.266 72.179 537.156 73.1733C539.045 74.1676 540.543 75.5384 541.651 77.2855C542.759 79.0327 543.384 81.0284 543.526 83.2727H542.163Z" fill="white"/>
<path d="M349.673 40.9886V30.5057H354.446C355.062 30.5057 355.62 30.6383 356.122 30.9034C356.624 31.1591 357.017 31.5284 357.301 32.0114C357.595 32.4848 357.741 33.0483 357.741 33.7017C357.741 34.3646 357.595 34.947 357.301 35.4489C357.008 35.9413 356.605 36.3295 356.094 36.6136C355.592 36.8883 355.024 37.0256 354.389 37.0256H350.44V35.8466H354.134C354.787 35.8466 355.308 35.6572 355.696 35.2784C356.094 34.8996 356.293 34.3741 356.293 33.7017C356.293 33.0199 356.094 32.5133 355.696 32.1818C355.308 31.8504 354.792 31.6847 354.148 31.6847H351.051V40.9886H349.673ZM355.582 36.2017L358.168 40.9886H356.634L354.091 36.2017H355.582ZM353.409 47.2386C351.837 47.2386 350.365 46.9451 348.991 46.358C347.618 45.7708 346.411 44.9564 345.369 43.9148C344.328 42.8731 343.513 41.6657 342.926 40.2926C342.339 38.9195 342.045 37.447 342.045 35.875C342.045 34.303 342.339 32.8305 342.926 31.4574C343.513 30.0843 344.328 28.8769 345.369 27.8352C346.411 26.7936 347.618 25.9792 348.991 25.392C350.365 24.8049 351.837 24.5114 353.409 24.5114C354.981 24.5114 356.454 24.8049 357.827 25.392C359.2 25.9792 360.407 26.7936 361.449 27.8352C362.491 28.8769 363.305 30.0843 363.892 31.4574C364.479 32.8305 364.773 34.303 364.773 35.875C364.773 37.447 364.479 38.9195 363.892 40.2926C363.305 41.6657 362.491 42.8731 361.449 43.9148C360.407 44.9564 359.2 45.7708 357.827 46.358C356.454 46.9451 354.981 47.2386 353.409 47.2386ZM353.409 45.7188C355.227 45.7188 356.88 45.2784 358.366 44.3977C359.863 43.517 361.051 42.3333 361.932 40.8466C362.813 39.3504 363.253 37.6932 363.253 35.875C363.253 34.0568 362.808 32.4044 361.918 30.9176C361.037 29.4309 359.853 28.2472 358.366 27.3665C356.88 26.4763 355.227 26.0312 353.409 26.0312C351.591 26.0312 349.934 26.4716 348.438 27.3523C346.951 28.233 345.767 29.4214 344.886 30.9176C344.006 32.4044 343.565 34.0568 343.565 35.875C343.565 37.6837 344.006 39.3362 344.886 40.8324C345.767 42.3286 346.951 43.517 348.438 44.3977C349.934 45.2784 351.591 45.7188 353.409 45.7188Z" fill="white"/>
</svg>
